{
  "accessors": [
    {
      "bufferView": 2,
      "componentType": 5126,
      "count": 1831,
      "max": [
        53.18109893798828,
        166.8942108154297,
        45.92055130004883
      ],
      "min": [
        -53.18109893798828,
        -171.74691772460938,
        -0.10500100255012512
      ],
      "type": "VEC3"
    },
    {
      "bufferView": 2,
      "byteOffset": 21972,
      "componentType": 5126,
      "count": 1831,
      "max": [
        1.0,
        1.0,
        1.0
      ],
      "min": [
        -0.9999996423721313,
        -1.0,
        -0.9999997019767761
      ],
      "type": "VEC3"
    },
    {
      "bufferView": 3,
      "componentType": 5126,
      "count": 1831,
      "max": [
        1.0,
        1.0,
        1.0,
        1.0
      ],
      "min": [
        -1.0,
        -0.9999889731407166,
        -1.0,
        -1.0
      ],
      "type": "VEC4"
    },
    {
      "bufferView": 1,
      "componentType": 5126,
      "count": 1831,
      "max": [
        0.9956049919128418,
        0.9978200197219849
      ],
      "min": [
        0.004780000075697899,
        0.0019529999699443579
      ],
      "type": "VEC2"
    },
    {
      "bufferView": 0,
      "componentType": 5125,
      "count": 5640,
      "type": "SCALAR"
    }
  ],
  "asset": {
    "extras": {
      "author": "o0ozexo0o (https://sketchfab.com/dadndan0091)",
      "license": "CC-BY-4.0 (http://creativecommons.org/licenses/by/4.0/)",
      "source": "https://sketchfab.com/3d-models/wooden-boat-55118b23a5494e4b81eed831b9f8c871",
      "title": "Wooden Boat"
    },
    "generator": "Sketchfab-12.67.0",
    "version": "2.0"
  },
  "bufferViews": [
    {
      "buffer": 0,
      "byteLength": 22560,
      "name": "floatBufferViews",
      "target": 34963
    },
    {
      "buffer": 0,
      "byteLength": 14648,
      "byteOffset": 22560,
      "byteStride": 8,
      "name": "floatBufferViews",
      "target": 34962
    },
    {
      "buffer": 0,
      "byteLength": 43944,
      "byteOffset": 37208,
      "byteStride": 12,
      "name": "floatBufferViews",
      "target": 34962
    },
    {
      "buffer": 0,
      "byteLength": 29296,
      "byteOffset": 81152,
      "byteStride": 16,
      "name": "floatBufferViews",
      "target": 34962
    }
  ],
  "buffers": [
    {
      "byteLength": 110448,
      "uri": "scene.bin"
    }
  ],
  "images": [
    {
      "uri": "textures/IND_WoodenBoat_01_SM_baseColor.png"
    },
    {
      "uri": "textures/IND_WoodenBoat_01_SM_metallicRoughness.png"
    },
    {
      "uri": "textures/IND_WoodenBoat_01_SM_normal.png"
    }
  ],
  "materials": [
    {
      "doubleSided": true,
      "name": "IND_WoodenBoat_01_SM",
      "normalTexture": {
        "index": 2
      },
      "pbrMetallicRoughness": {
        "baseColorTexture": {
          "index": 0
        },
        "metallicRoughnessTexture": {
          "index": 1
        },
        "roughnessFactor": 0.6
      }
    }
  ],
  "meshes": [
    {
      "name": "Object_0",
      "primitives": [
        {
          "attributes": {
            "NORMAL": 1,
            "POSITION": 0,
            "TANGENT": 2,
            "TEXCOORD_0": 3
          },
          "indices": 4,
          "material": 0,
          "mode": 4
        }
      ]
    }
  ],
  "nodes": [
    {
      "children": [
        1
      ],
      "matrix": [
        1.0,
        0.0,
        0.0,
        0.0,
        0.0,
        2.220446049250313e-16,
        -1.0,
        0.0,
        0.0,
        1.0,
        2.220446049250313e-16,
        0.0,
        0.0,
        0.0,
        0.0,
        1.0
      ],
      "name": "Sketchfab_model"
    },
    {
      "children": [
        2
      ],
      "name": "5dbf7b5f5aff4a91921fe860cce83eae.obj.cleaner.materialmerger.gles"
    },
    {
      "mesh": 0,
      "name": "Object_2"
    }
  ],
  "samplers": [
    {
      "magFilter": 9729,
      "minFilter": 9987,
      "wrapS": 10497,
      "wrapT": 10497
    }
  ],
  "scene": 0,
  "scenes": [
    {
      "name": "Sketchfab_Scene",
      "nodes": [
        0
      ]
    }
  ],
  "textures": [
    {
      "sampler": 0,
      "source": 0
    },
    {
      "sampler": 0,
      "source": 1
    },
    {
      "sampler": 0,
      "source": 2
    }
  ]
}
